<svg height="480.56687pt" viewBox="0 0 480.56687 480.56687" width="480.56687pt" xmlns="http://www.w3.org/2000/svg"><path d="m442.566406 284.246094-28.238281-28.320313-158.402344 158.402344 28.320313 28.238281c8.980468 9.027344 21.1875 14.101563 33.921875 14.101563 12.730469 0 24.9375-5.074219 33.917969-14.101563l90.480468-90.480468c9.027344-8.980469 14.101563-21.1875 14.101563-33.917969 0-12.734375-5.074219-24.941407-14.101563-33.921875zm0 0" fill="#78b9eb"/><path d="m380.40625 222.007812-209.359375-209.359374c-2.988281-2.996094-7.046875-4.679688-11.28125-4.679688-4.230469 0-8.289063 1.683594-11.277344 4.679688l-135.839843 135.839843c-2.996094 2.988281-4.679688 7.046875-4.679688 11.277344 0 4.234375 1.683594 8.292969 4.679688 11.28125l209.359374 209.359375zm0 0" fill="#78b9eb"/><path d="m319.632812 464.566406c14.328126-.332031 27.980469-6.171875 38.117188-16.304687l90.511719-90.511719c21.828125-21.886719 21.828125-57.3125 0-79.199219l-271.527344-271.519531c-9.371094-9.375-24.570313-9.375-33.945313 0l-135.757812 135.757812c-9.375 9.375-9.375 24.574219 0 33.945313l271.527344 271.527344c10.136718 10.136719 23.789062 15.972656 38.121094 16.304687h-316.113282v16h480v-16zm83.375-208.640625-147.082031 147.082031-22.621093-22.625 147.078124-147.078124zm-384.664062-101.824219 135.757812-135.757812c3.125-3.125 8.1875-3.125 11.3125 0l203.648438 203.648438-147.070312 147.078124-203.648438-203.65625c-3.125-3.125-3.125-8.1875 0-11.3125zm248.894531 260.21875 147.082031-147.082031 22.628907 22.632813c15.597656 15.632812 15.597656 40.9375 0 56.566406l-90.511719 90.511719c-15.628906 15.597656-40.933594 15.597656-56.566406 0zm0 0" fill="#1a6fb0"/></svg>